# xmcd
#
# Track frame offsets:
#	150
#	18130
#	36612
#	51786
#	69667
#	84958
#	96953
#	109024
#	120998
#	144342
#	163653
#	174188
#	179372
#	195295
#	208910
#
# Disc length: 2883 seconds
#
# Revision: 0
# Processed by: cddbd v1.4PL0 Copyright (c) Steve Scherf et al.
# Submitted via: dBpowerAMP V4.0
#
DISCID=c20b410f
DTITLE=Milteau Jean-Jacques - Routes
DYEAR=1995
DGENRE=Blues
TTITLE0=Blue hop
TTITLE1=Miss Boogie
TTITLE2=Randy and Ry
TTITLE3=Yaoussa
TTITLE4=Got no home
TTITLE5=Ars en ré
TTITLE6=Rue Doisneau
TTITLE7=Marcelle and Marcel
TTITLE8=Hometown
TTITLE9=Routes
TTITLE10=The sailor and the maid
TTITLE11=Saint Pierre
TTITLE12=Bordighera
TTITLE13=Soweto
TTITLE14=Tennessee fried chicken
EXTD=
EXTT0=
EXTT1=
EXTT2=
EXTT3=
EXTT4=
EXTT5=
EXTT6=
EXTT7=
EXTT8=
EXTT9=
EXTT10=
EXTT11=
EXTT12=
EXTT13=
EXTT14=
PLAYORDER=
